<svg width="40" height="40" viewBox="0 0 40 40" fill="none" xmlns="http://www.w3.org/2000/svg">
<g clip-path="url(#clip0_54_113)">
<path d="M8.26977 18.8797C8.2698 18.6576 8.3137 18.4376 8.39898 18.2326C8.48426 18.0274 8.60918 17.8412 8.76662 17.6845C8.92407 17.5278 9.11092 17.4038 9.31643 17.3195C9.52193 17.2353 9.74207 17.1924 9.9642 17.1934L12.7734 17.2026C13.2213 17.2026 13.6509 17.3806 13.9676 17.6973C14.2843 18.014 14.4622 18.4436 14.4622 18.8915V29.5145C14.7786 29.4207 15.1835 29.3207 15.6291 29.2157C15.9378 29.1431 16.2129 28.9684 16.4098 28.7198C16.6068 28.4712 16.714 28.1634 16.714 27.8462V14.6702C16.714 14.2222 16.8919 13.7926 17.2087 13.4759C17.5254 13.1591 17.955 12.9811 18.4029 12.981H21.2206C21.6685 12.9811 22.0981 13.1591 22.4148 13.4759C22.7315 13.7926 22.9094 14.2222 22.9094 14.6702V26.8997C22.9094 26.8997 23.6144 26.6144 24.3006 26.3246C24.5556 26.2168 24.7732 26.0362 24.9262 25.8055C25.0793 25.5748 25.161 25.3041 25.1612 25.0272V10.4479C25.1612 10 25.3391 9.57052 25.6558 9.2538C25.9724 8.93708 26.4019 8.75911 26.8498 8.75902H29.6645C30.1121 8.75948 30.5413 8.93757 30.8576 9.25426C31.174 9.57095 31.3517 10.0003 31.3517 10.4479V22.4534C33.7921 20.6849 36.2652 18.5577 38.2279 16C38.5125 15.6288 38.701 15.1928 38.7764 14.731C38.8515 14.2692 38.8115 13.7959 38.6593 13.3534C37.7508 10.7397 36.3066 8.34443 34.4193 6.32085C32.532 4.29728 30.243 2.68996 27.6988 1.60178C25.1546 0.513603 22.4113 -0.0314844 19.6444 0.00140442C16.8774 0.0342931 14.1478 0.644433 11.6303 1.79278C9.11266 2.94112 6.86252 4.60239 5.0238 6.67026C3.18511 8.73813 1.79832 11.1671 0.952207 13.8017C0.106091 16.4362 -0.180721 19.2185 0.110121 21.9703C0.400964 24.722 1.26306 27.3828 2.64123 29.7823C2.88134 30.1962 3.2346 30.533 3.65951 30.7532C4.08439 30.9733 4.56328 31.0676 5.03993 31.0249C5.57239 30.978 6.23534 30.9118 7.02354 30.8193C7.36656 30.7803 7.68328 30.6165 7.91331 30.359C8.14338 30.1016 8.27072 29.7686 8.27108 29.4233V18.8797" fill="white"/>
<path d="M8.20947 35.9161C11.1764 38.0745 14.6827 39.3702 18.3402 39.6594C21.9978 39.9489 25.6641 39.2207 28.9336 37.5558C32.203 35.8908 34.9481 33.3538 36.8652 30.2255C38.7822 27.0972 39.7967 23.4995 39.796 19.8305C39.796 19.3715 39.7747 18.9197 39.7442 18.4692C32.4776 29.3069 19.0606 34.3735 8.20947 35.9161Z" fill="#F0B90B"/>
</g>
<defs>
<clipPath id="clip0_54_113">
<rect width="40" height="40" fill="white"/>
</clipPath>
</defs>
</svg>
