<svg width="44" height="40" viewBox="0 0 44 40" fill="none" xmlns="http://www.w3.org/2000/svg">
<path d="M35.9287 5.67773H44L42.3076 11.3545H40.876V34.3223C41.5948 34.3224 42.1777 34.9007 42.1777 35.6133V37.1611H42.4375C43.1563 37.1611 43.739 37.7388 43.7393 38.4512V40H29.1602V38.4512C29.1604 37.7388 29.7431 37.1611 30.4619 37.1611H30.7217V35.6133C30.7217 34.9889 31.1692 34.467 31.7637 34.3477V21.6777H31.7227C31.2622 16.6138 26.968 12.6455 21.7393 12.6455C16.5107 12.6457 12.2173 16.6139 11.7568 21.6777H11.7158V34.3223H11.9766C12.6954 34.3224 13.2783 34.9007 13.2783 35.6133V37.1611H13.5381C14.2569 37.1611 14.8396 37.7388 14.8398 38.4512V40H0.260742V38.4512C0.260994 37.7388 0.843704 37.1611 1.5625 37.1611H1.82227V35.6133C1.82227 34.9007 2.40519 34.3224 3.12402 34.3223V11.3545H1.69238L0 5.67773H7.55078V0H35.9287V5.67773Z" fill="white"/>
</svg>
