<svg width="40" height="40" viewBox="0 0 40 40" fill="none" xmlns="http://www.w3.org/2000/svg">
<path d="M22.1348 31.8584L22.3594 31.9678L22.416 40L22.1348 39.8359L12.2471 34.5898L19.6631 30.5469L22.1348 31.8584ZM28.0342 35.0312V37.3262L23.708 39.6758L23.6523 32.6807L28.0342 35.0312ZM19.1572 29.4531L19.0449 29.5078H18.9883L18.7637 29.6709L18.3701 29.835L17.6396 30.2725L11.46 33.6055L10.7861 33.9336L10.168 34.3164L8.48242 35.1904L8.31445 35.2998L8.25781 24.1523V23.7695L8.76367 23.4424L16.6289 19.1797L17.2471 18.7969L17.9209 18.4697L19.1572 17.7588V29.4531ZM18.3145 16.8301L16.5732 17.8135L15.8984 18.1406L15.2803 18.5234L8.82031 22.0205L8.20215 22.4033L7.24707 22.8945L7.02246 23.0586V23.4414L7.07812 35.0801L2.58398 32.6221V20.4365H2.64062L3.31445 20.0537L7.75293 17.6494L8.08984 17.4854L8.37012 17.3213L8.70801 17.1025L8.98828 16.9932L9.38184 16.7744L10.5615 16.1191L10.7305 16.0645L11.1797 15.791L11.3477 15.7363L11.8535 15.4092L11.9658 15.3545L13.7637 14.3701L18.3145 16.8301ZM40 28.0322L29.2695 33.6611L28.708 33.9893H28.6514L28.0342 33.6611L24.6064 31.8027L23.5957 31.2568L23.4834 31.2021L22.9775 30.9287L22.3594 30.6006L21.7412 30.2734L20.6182 29.6719L20.3936 29.5625V24.3721L28.6514 28.7979L40 22.8418V28.0322ZM36.2363 20.165L36.8535 20.4922L37.5283 20.8203L38.1465 21.2031L39.2695 21.8037L39.1572 21.8584L38.1465 22.4053L28.6514 27.4316L20.3936 22.9512V21.0938H20.4492L21.6289 21.6943H21.7412L22.0225 21.8037L22.1348 21.8584L22.8652 22.2412L23.4834 21.9131L23.5957 21.8584V21.9678L23.876 21.8037L23.9883 21.749L25.1123 21.1484L27.416 19.8369L28.0898 19.5088L28.708 19.1807L29.2695 18.8535V16.3945L36.2363 20.165ZM27.4717 5.7373L28.0342 6.06543V18.1416L27.416 18.4697L23.5391 20.6006L23.3711 20.6553V8.52441L12.1348 2.51367L16.7412 0L27.4717 5.7373ZM22.1348 9.2373V20.5488L21.124 20.0566L20.4502 19.7295H20.3936V19.1279L20.3369 19.1826V16.6143L19.4951 16.1777L19.4385 16.123L19.3828 16.0137L13.7646 13.0078L11.9668 13.9912L11.4609 14.2646V3.55469L22.1348 9.2373ZM6.85352 16.7217L6.79785 16.7754L2.02246 19.3438L0 18.3057V13.1689L6.85352 16.7217ZM36.293 18.8008L29.2705 15.0303V12.3525L36.293 8.52734V18.8008ZM10.1699 14.9199L8.20312 16.0127L0.731445 12.1875L10.1699 7.16016V14.9199ZM35.3936 7.48633L35.5059 7.54102L29.2705 10.9834V6.12012L31.0117 5.13672L35.3936 7.48633Z" fill="white"/>
</svg>
