<?xml version="1.0" encoding="UTF-8"?>
<svg id="_圖層_1" data-name="圖層_1" xmlns="http://www.w3.org/2000/svg" xmlns:xlink="http://www.w3.org/1999/xlink" version="1.1" viewBox="0 0 226.77 226.77">
  <!-- Generator: Adobe Illustrator 29.7.1, SVG Export Plug-In . SVG Version: 2.1.1 Build 8)  -->
  <defs>
    <style>
      .st0 {
        mask: url(#mask);
      }

      .st1 {
        fill: #141314;
      }

      .st2 {
        fill: #fff;
      }

      .st3 {
        stroke: #fff;
        stroke-width: 2px;
      }

      .st3, .st4 {
        fill: none;
      }

      .st5 {
        fill: #0c0c0c;
      }

      .st4 {
        stroke: #000;
      }
    </style>
    <mask id="mask" x="-542" y="-1" width="112" height="222" maskUnits="userSpaceOnUse">
      <g id="path-2-inside-1_148_1506">
        <path class="st2" d="M-431,220c-29.17,0-57.15-11.59-77.78-32.22-20.63-20.63-32.22-48.61-32.22-77.78,0-29.17,11.59-57.15,32.22-77.78C-488.16,11.59-460.18,0-431,0v220Z"/>
      </g>
    </mask>
  </defs>
  <!-- square background removed -->
  <path class="st2" d="M-431,220c29.17,0,57.15-11.59,77.78-32.22s32.22-48.61,32.22-77.78-11.59-57.15-32.22-77.78C-373.85,11.59-401.83,0-431,0v220Z"/>
  <g class="st0">
    <path class="st3" d="M-431,220c-29.17,0-57.15-11.59-77.78-32.22-20.63-20.63-32.22-48.61-32.22-77.78,0-29.17,11.59-57.15,32.22-77.78C-488.16,11.59-460.18,0-431,0v220Z"/>
  </g>
  <path class="st4" d="M-432.91,2.53c14.23-.32,28.38,2.2,41.63,7.42,13.24,5.22,25.31,13.03,35.5,22.97,10.19,9.94,18.29,21.82,23.83,34.93,5.54,13.11,8.41,27.2,8.44,41.43.03,14.23-2.78,28.33-8.27,41.47-5.49,13.14-13.54,25.04-23.69,35.03-10.15,9.98-22.18,17.84-35.41,23.12-13.22,5.27-27.36,7.86-41.6,7.6"/>
  <path class="st2" d="M-432,118c-1.05,0-2.09-.21-3.06-.61-.97-.4-1.85-.99-2.6-1.73-.74-.74-1.33-1.62-1.73-2.6-.4-.97-.61-2.01-.61-3.06s.21-2.09.61-3.06c.4-.97.99-1.85,1.73-2.6.74-.74,1.62-1.33,2.6-1.73.97-.4,2.01-.61,3.06-.61v16Z"/>
  <path class="st5" d="M-432,118c1.05,0,2.09-.21,3.06-.61.97-.4,1.85-.99,2.6-1.73.74-.74,1.33-1.62,1.73-2.6.4-.97.61-2.01.61-3.06s-.21-2.09-.61-3.06c-.4-.97-.99-1.85-1.73-2.6-.74-.74-1.62-1.33-2.6-1.73-.97-.4-2.01-.61-3.06-.61v16Z"/>
  <rect class="st5" x="-419" y="100" width="30" height="20"/>
  <rect class="st2" x="-475" y="100" width="30" height="20"/>
  <g>
    <g>
      <path class="st2" d="M-159.5,3.23c60.84,0,110.15,49.32,110.15,110.16s-49.32,110.16-110.15,110.16"/>
      <path class="st1" d="M-159.5,223.54c-60.84,0-110.15-49.32-110.15-110.16S-220.34,3.23-159.5,3.23"/>
      <path class="st1" d="M-159.5,226.77c-62.52,0-113.39-50.87-113.39-113.39S-222.02,0-159.5,0-46.12,50.87-46.12,113.39s-50.86,113.39-113.38,113.39ZM-159.5,6.47c-58.96,0-106.91,47.96-106.91,106.91s47.96,106.91,106.91,106.91,106.91-47.96,106.91-106.91S-100.55,6.47-159.5,6.47Z"/>
    </g>
    <g>
      <path class="st1" d="M-159.5,103.98c5.19,0,9.4,4.21,9.4,9.4s-4.21,9.4-9.4,9.4"/>
      <path class="st2" d="M-159.5,122.79c-5.19,0-9.4-4.21-9.4-9.4s4.21-9.4,9.4-9.4"/>
    </g>
    <rect class="st1" x="-137.01" y="101.3" width="32.24" height="24.18"/>
    <rect class="st2" x="-214.24" y="101.3" width="32.24" height="24.18"/>
  </g>
  <g>
    <g>
      <g>
        <path class="st2" d="M113.39,3.45c60.71,0,109.93,49.22,109.93,109.93s-49.22,109.93-109.93,109.93"/>
        <path class="st1" d="M113.39,223.32c-60.71,0-109.93-49.22-109.93-109.93S52.67,3.45,113.39,3.45"/>
      </g>
      <g>
        <path class="st1" d="M113.39,104c5.18,0,9.38,4.2,9.38,9.38s-4.2,9.38-9.38,9.38"/>
        <path class="st2" d="M113.39,122.77c-5.18,0-9.38-4.2-9.38-9.38s4.2-9.38,9.38-9.38"/>
      </g>
      <rect class="st1" x="135.84" y="101.31" width="32.18" height="24.13"/>
      <rect class="st2" x="58.76" y="101.31" width="32.18" height="24.13"/>
    </g>
    <path class="st2" d="M113.39,226.77C50.87,226.77,0,175.91,0,113.39S50.87,0,113.39,0s113.38,50.87,113.38,113.39-50.86,113.39-113.38,113.39ZM113.39,6.47C54.43,6.47,6.48,54.44,6.48,113.39s47.96,106.91,106.91,106.91,106.91-47.96,106.91-106.91S172.34,6.47,113.39,6.47Z"/>
  </g>
</svg>